# xmcd
#
# Track frame offsets:
# 150
# 13365
# 29086
# 49458
# 69440
# 86981
# 108088
# 126092
# 149703
# 167264
# 177983
# 198114
# 216686
# 238673
# 259370
#
# Disc length: 3777 seconds
#
# Revision: 0
# Processed by: cddbd v1.5.1PL0 Copyright (c) Steve Scherf et al.
# Submitted via: Audion 3.0.2 (http://www.panic.com/audion/)
#
DISCID=eb0ebf0f
DTITLE=SFDK - Lo and bruto
DYEAR=1900
DGENRE=
TTITLE0=1 de cada 20
TTITLE1=El perro anda suelto
TTITLE2=El ingeniero
TTITLE3=Nivel pinomontano
TTITLE4=Donde esta wifly?
TTITLE5=A mi no me lo cuentes
TTITLE6=Desde los chiqueros
TTITLE7=Desafio total
TTITLE8=Una de piratas
TTITLE9=Las vocales
TTITLE10=Duelo de Vikingos
TTITLE11=Asi te talo asi te podo
TTITLE12=Rap romantico
TTITLE13=Next level
TTITLE14=El liricista en el tejado
EXTD=
EXTT0=
EXTT1=
EXTT2=
EXTT3=
EXTT4=
EXTT5=
EXTT6=
EXTT7=
EXTT8=
EXTT9=
EXTT10=
EXTT11=
EXTT12=
EXTT13=
EXTT14=
PLAYORDER=
